<mxfile host="app.diagrams.net" modified="2024-03-28T16:25:36.831Z" agent="Mozilla/5.0 (Windows NT 10.0; Win64; x64) AppleWebKit/537.36 (KHTML, like Gecko) Chrome/123.0.0.0 Safari/537.36" etag="RamsgPHuLQRrhXUTtRJN" version="24.2.0" type="device" pages="2">
  <diagram name="Trang-1" id="nmv1UT5ovHr7HX_aYrOm">
    <mxGraphModel dx="724" dy="360" grid="1" gridSize="10" guides="1" tooltips="1" connect="1" arrows="1" fold="1" page="1" pageScale="1" pageWidth="827" pageHeight="1169" math="0" shadow="0">
      <root>
        <mxCell id="0" />
        <mxCell id="1" parent="0" />
        <mxCell id="RESDC_gG49x9ssa3GJz5-2" value="" style="endArrow=classic;html=1;rounded=0;" parent="1" edge="1">
          <mxGeometry width="50" height="50" relative="1" as="geometry">
            <mxPoint x="80" y="240" as="sourcePoint" />
            <mxPoint x="660" y="240" as="targetPoint" />
          </mxGeometry>
        </mxCell>
        <mxCell id="RESDC_gG49x9ssa3GJz5-3" value="Busy channel" style="rounded=0;whiteSpace=wrap;html=1;" parent="1" vertex="1">
          <mxGeometry x="100" y="230" width="120" height="20" as="geometry" />
        </mxCell>
        <mxCell id="NygZOU-2xJjV2RHNYSMC-1" value="" style="endArrow=classic;html=1;rounded=0;" edge="1" parent="1">
          <mxGeometry width="50" height="50" relative="1" as="geometry">
            <mxPoint x="200" y="190" as="sourcePoint" />
            <mxPoint x="200" y="230" as="targetPoint" />
          </mxGeometry>
        </mxCell>
        <mxCell id="NygZOU-2xJjV2RHNYSMC-2" value="" style="endArrow=classic;html=1;rounded=0;" edge="1" parent="1">
          <mxGeometry width="50" height="50" relative="1" as="geometry">
            <mxPoint x="180" y="190" as="sourcePoint" />
            <mxPoint x="180" y="230" as="targetPoint" />
          </mxGeometry>
        </mxCell>
        <mxCell id="NygZOU-2xJjV2RHNYSMC-3" value="" style="endArrow=classic;html=1;rounded=0;" edge="1" parent="1">
          <mxGeometry width="50" height="50" relative="1" as="geometry">
            <mxPoint x="140" y="190" as="sourcePoint" />
            <mxPoint x="140" y="230" as="targetPoint" />
          </mxGeometry>
        </mxCell>
        <mxCell id="NygZOU-2xJjV2RHNYSMC-4" value="" style="endArrow=classic;html=1;rounded=0;" edge="1" parent="1">
          <mxGeometry width="50" height="50" relative="1" as="geometry">
            <mxPoint x="160" y="190" as="sourcePoint" />
            <mxPoint x="160" y="230" as="targetPoint" />
          </mxGeometry>
        </mxCell>
        <mxCell id="NygZOU-2xJjV2RHNYSMC-5" value="" style="endArrow=none;dashed=1;html=1;dashPattern=1 3;strokeWidth=2;rounded=0;" edge="1" parent="1">
          <mxGeometry width="50" height="50" relative="1" as="geometry">
            <mxPoint x="100" y="210" as="sourcePoint" />
            <mxPoint x="130" y="210" as="targetPoint" />
          </mxGeometry>
        </mxCell>
        <mxCell id="NygZOU-2xJjV2RHNYSMC-6" value="" style="endArrow=classic;html=1;rounded=0;" edge="1" parent="1">
          <mxGeometry width="50" height="50" relative="1" as="geometry">
            <mxPoint x="220" y="170" as="sourcePoint" />
            <mxPoint x="220" y="230" as="targetPoint" />
          </mxGeometry>
        </mxCell>
        <mxCell id="NygZOU-2xJjV2RHNYSMC-7" value="Found idle" style="text;html=1;align=center;verticalAlign=middle;whiteSpace=wrap;rounded=0;" vertex="1" parent="1">
          <mxGeometry x="190" y="140" width="60" height="30" as="geometry" />
        </mxCell>
        <mxCell id="NygZOU-2xJjV2RHNYSMC-8" value="" style="rounded=0;whiteSpace=wrap;html=1;rotation=90;" vertex="1" parent="1">
          <mxGeometry x="265" y="205" width="60" height="10" as="geometry" />
        </mxCell>
        <mxCell id="NygZOU-2xJjV2RHNYSMC-9" value="" style="rounded=0;whiteSpace=wrap;html=1;rotation=90;" vertex="1" parent="1">
          <mxGeometry x="275" y="205" width="60" height="10" as="geometry" />
        </mxCell>
        <mxCell id="NygZOU-2xJjV2RHNYSMC-10" value="" style="rounded=0;whiteSpace=wrap;html=1;rotation=90;" vertex="1" parent="1">
          <mxGeometry x="285" y="205" width="60" height="10" as="geometry" />
        </mxCell>
        <mxCell id="NygZOU-2xJjV2RHNYSMC-11" value="" style="rounded=0;whiteSpace=wrap;html=1;rotation=90;" vertex="1" parent="1">
          <mxGeometry x="295" y="205" width="60" height="10" as="geometry" />
        </mxCell>
        <mxCell id="NygZOU-2xJjV2RHNYSMC-12" value="" style="rounded=0;whiteSpace=wrap;html=1;rotation=90;" vertex="1" parent="1">
          <mxGeometry x="305" y="205" width="60" height="10" as="geometry" />
        </mxCell>
        <mxCell id="NygZOU-2xJjV2RHNYSMC-13" value="" style="rounded=0;whiteSpace=wrap;html=1;rotation=90;" vertex="1" parent="1">
          <mxGeometry x="315" y="205" width="60" height="10" as="geometry" />
        </mxCell>
        <mxCell id="NygZOU-2xJjV2RHNYSMC-14" value="" style="rounded=0;whiteSpace=wrap;html=1;rotation=90;" vertex="1" parent="1">
          <mxGeometry x="325" y="205" width="60" height="10" as="geometry" />
        </mxCell>
        <mxCell id="NygZOU-2xJjV2RHNYSMC-15" value="" style="rounded=0;whiteSpace=wrap;html=1;rotation=90;" vertex="1" parent="1">
          <mxGeometry x="335" y="205" width="60" height="10" as="geometry" />
        </mxCell>
        <mxCell id="NygZOU-2xJjV2RHNYSMC-16" value="Contention widow" style="text;html=1;align=center;verticalAlign=middle;whiteSpace=wrap;rounded=0;" vertex="1" parent="1">
          <mxGeometry x="275" y="240" width="105" height="30" as="geometry" />
        </mxCell>
        <mxCell id="NygZOU-2xJjV2RHNYSMC-17" value="" style="endArrow=classic;startArrow=classic;html=1;rounded=0;entryX=0.5;entryY=1;entryDx=0;entryDy=0;" edge="1" parent="1" target="NygZOU-2xJjV2RHNYSMC-8">
          <mxGeometry width="50" height="50" relative="1" as="geometry">
            <mxPoint x="220" y="210" as="sourcePoint" />
            <mxPoint x="350" y="200" as="targetPoint" />
          </mxGeometry>
        </mxCell>
        <mxCell id="NygZOU-2xJjV2RHNYSMC-18" value="IFS" style="text;html=1;align=center;verticalAlign=middle;whiteSpace=wrap;rounded=0;" vertex="1" parent="1">
          <mxGeometry x="238" y="192" width="35" height="20" as="geometry" />
        </mxCell>
        <mxCell id="NygZOU-2xJjV2RHNYSMC-19" value="" style="endArrow=classic;startArrow=classic;html=1;rounded=0;" edge="1" parent="1">
          <mxGeometry width="50" height="50" relative="1" as="geometry">
            <mxPoint x="290" y="160" as="sourcePoint" />
            <mxPoint x="370" y="160" as="targetPoint" />
          </mxGeometry>
        </mxCell>
        <mxCell id="NygZOU-2xJjV2RHNYSMC-20" value="" style="endArrow=none;html=1;rounded=0;fontSize=9;spacing=2;endSize=2;startSize=1;strokeWidth=0.5;" edge="1" parent="1">
          <mxGeometry width="50" height="50" relative="1" as="geometry">
            <mxPoint x="289.87" y="180" as="sourcePoint" />
            <mxPoint x="290" y="150" as="targetPoint" />
          </mxGeometry>
        </mxCell>
        <mxCell id="NygZOU-2xJjV2RHNYSMC-21" value="" style="endArrow=none;html=1;rounded=0;fontSize=9;spacing=2;endSize=2;startSize=1;strokeWidth=0.5;" edge="1" parent="1">
          <mxGeometry width="50" height="50" relative="1" as="geometry">
            <mxPoint x="370" y="180" as="sourcePoint" />
            <mxPoint x="370.13" y="150" as="targetPoint" />
          </mxGeometry>
        </mxCell>
        <mxCell id="NygZOU-2xJjV2RHNYSMC-22" value="Binary exponential" style="text;html=1;align=center;verticalAlign=middle;whiteSpace=wrap;rounded=0;" vertex="1" parent="1">
          <mxGeometry x="298.25" y="130" width="62.5" height="30" as="geometry" />
        </mxCell>
        <mxCell id="NygZOU-2xJjV2RHNYSMC-23" value="Wait time&lt;div&gt;or time slot&lt;/div&gt;" style="text;html=1;align=center;verticalAlign=middle;whiteSpace=wrap;rounded=0;" vertex="1" parent="1">
          <mxGeometry x="381" y="150" width="65" height="30" as="geometry" />
        </mxCell>
        <mxCell id="NygZOU-2xJjV2RHNYSMC-24" value="" style="endArrow=classic;html=1;rounded=0;entryX=0.447;entryY=0.235;entryDx=0;entryDy=0;entryPerimeter=0;exitX=0.25;exitY=0.667;exitDx=0;exitDy=0;exitPerimeter=0;" edge="1" parent="1">
          <mxGeometry width="50" height="50" relative="1" as="geometry">
            <mxPoint x="388" y="182.01" as="sourcePoint" />
            <mxPoint x="365.6500000000001" y="208.82" as="targetPoint" />
          </mxGeometry>
        </mxCell>
        <mxCell id="NygZOU-2xJjV2RHNYSMC-26" value="Send frame" style="rounded=0;whiteSpace=wrap;html=1;" vertex="1" parent="1">
          <mxGeometry x="395" y="230" width="85" height="20" as="geometry" />
        </mxCell>
        <mxCell id="NygZOU-2xJjV2RHNYSMC-27" value="Wait for ACK" style="rounded=0;whiteSpace=wrap;html=1;" vertex="1" parent="1">
          <mxGeometry x="480" y="230" width="75" height="20" as="geometry" />
        </mxCell>
        <mxCell id="NygZOU-2xJjV2RHNYSMC-29" value="Timeout" style="rounded=0;whiteSpace=wrap;html=1;" vertex="1" parent="1">
          <mxGeometry x="555" y="230" width="75" height="20" as="geometry" />
        </mxCell>
        <mxCell id="NygZOU-2xJjV2RHNYSMC-31" value="time" style="text;html=1;align=center;verticalAlign=middle;whiteSpace=wrap;rounded=0;" vertex="1" parent="1">
          <mxGeometry x="630" y="210" width="60" height="30" as="geometry" />
        </mxCell>
      </root>
    </mxGraphModel>
  </diagram>
  <diagram id="jhjca3L6dZi01nRQEBbU" name="Trang-2">
    <mxGraphModel dx="724" dy="360" grid="1" gridSize="10" guides="1" tooltips="1" connect="1" arrows="1" fold="1" page="1" pageScale="1" pageWidth="827" pageHeight="1169" math="0" shadow="0">
      <root>
        <mxCell id="0" />
        <mxCell id="1" parent="0" />
        <mxCell id="uu0bmerfT81FikOkdRAW-6" value="" style="fontColor=#0066CC;verticalAlign=top;verticalLabelPosition=bottom;labelPosition=center;align=center;html=1;outlineConnect=0;fillColor=#CCCCCC;strokeColor=#6881B3;gradientColor=none;gradientDirection=north;strokeWidth=2;shape=mxgraph.networks.laptop;" vertex="1" parent="1">
          <mxGeometry x="240" y="250" width="72.73" height="40" as="geometry" />
        </mxCell>
        <mxCell id="uu0bmerfT81FikOkdRAW-7" value="" style="sketch=0;points=[[0.5,0,0],[1,0.5,0],[0.5,1,0],[0,0.5,0],[0.145,0.145,0],[0.8555,0.145,0],[0.855,0.8555,0],[0.145,0.855,0]];verticalLabelPosition=bottom;html=1;verticalAlign=top;aspect=fixed;align=center;pointerEvents=1;shape=mxgraph.cisco19.rect;prIcon=router;fillColor=#FAFAFA;strokeColor=#005073;" vertex="1" parent="1">
          <mxGeometry x="384" y="239" width="50" height="50" as="geometry" />
        </mxCell>
        <mxCell id="uu0bmerfT81FikOkdRAW-8" value="" style="fontColor=#0066CC;verticalAlign=top;verticalLabelPosition=bottom;labelPosition=center;align=center;html=1;outlineConnect=0;fillColor=#CCCCCC;strokeColor=#6881B3;gradientColor=none;gradientDirection=north;strokeWidth=2;shape=mxgraph.networks.laptop;" vertex="1" parent="1">
          <mxGeometry x="505" y="250" width="72.73" height="40" as="geometry" />
        </mxCell>
        <mxCell id="uu0bmerfT81FikOkdRAW-9" value="Station 1" style="text;html=1;align=center;verticalAlign=middle;whiteSpace=wrap;rounded=0;" vertex="1" parent="1">
          <mxGeometry x="246.37" y="220" width="60" height="30" as="geometry" />
        </mxCell>
        <mxCell id="uu0bmerfT81FikOkdRAW-10" value="Station 2" style="text;html=1;align=center;verticalAlign=middle;whiteSpace=wrap;rounded=0;" vertex="1" parent="1">
          <mxGeometry x="511.37" y="220" width="60" height="30" as="geometry" />
        </mxCell>
        <mxCell id="uu0bmerfT81FikOkdRAW-11" value="Channel" style="text;html=1;align=center;verticalAlign=middle;whiteSpace=wrap;rounded=0;" vertex="1" parent="1">
          <mxGeometry x="317.25" y="280" width="60" height="30" as="geometry" />
        </mxCell>
        <mxCell id="uu0bmerfT81FikOkdRAW-12" value="Channel" style="text;html=1;align=center;verticalAlign=middle;whiteSpace=wrap;rounded=0;" vertex="1" parent="1">
          <mxGeometry x="440" y="280" width="60" height="30" as="geometry" />
        </mxCell>
        <mxCell id="uu0bmerfT81FikOkdRAW-13" value="" style="endArrow=classic;html=1;rounded=0;" edge="1" parent="1">
          <mxGeometry width="50" height="50" relative="1" as="geometry">
            <mxPoint x="276.03" y="295" as="sourcePoint" />
            <mxPoint x="276" y="570" as="targetPoint" />
          </mxGeometry>
        </mxCell>
        <mxCell id="uu0bmerfT81FikOkdRAW-14" value="" style="endArrow=classic;html=1;rounded=0;" edge="1" parent="1">
          <mxGeometry width="50" height="50" relative="1" as="geometry">
            <mxPoint x="408.68999999999994" y="295" as="sourcePoint" />
            <mxPoint x="408.65999999999997" y="570" as="targetPoint" />
          </mxGeometry>
        </mxCell>
        <mxCell id="uu0bmerfT81FikOkdRAW-15" value="" style="endArrow=classic;html=1;rounded=0;" edge="1" parent="1">
          <mxGeometry width="50" height="50" relative="1" as="geometry">
            <mxPoint x="541.05" y="294" as="sourcePoint" />
            <mxPoint x="541.02" y="569" as="targetPoint" />
          </mxGeometry>
        </mxCell>
        <mxCell id="uu0bmerfT81FikOkdRAW-16" value="Time" style="text;html=1;align=center;verticalAlign=middle;whiteSpace=wrap;rounded=0;" vertex="1" parent="1">
          <mxGeometry x="220" y="540" width="60" height="30" as="geometry" />
        </mxCell>
        <mxCell id="uu0bmerfT81FikOkdRAW-17" value="" style="shape=parallelogram;perimeter=parallelogramPerimeter;whiteSpace=wrap;html=1;fixedSize=1;rotation=90;size=24;" vertex="1" parent="1">
          <mxGeometry x="317.25" y="273.75" width="50" height="132.5" as="geometry" />
        </mxCell>
        <mxCell id="uu0bmerfT81FikOkdRAW-18" value="RTS" style="text;html=1;align=center;verticalAlign=middle;whiteSpace=wrap;rounded=0;" vertex="1" parent="1">
          <mxGeometry x="312.25" y="325" width="60" height="30" as="geometry" />
        </mxCell>
        <mxCell id="uu0bmerfT81FikOkdRAW-22" value="" style="shape=parallelogram;perimeter=parallelogramPerimeter;whiteSpace=wrap;html=1;fixedSize=1;rotation=90;size=24;" vertex="1" parent="1">
          <mxGeometry x="450" y="338" width="50" height="132.5" as="geometry" />
        </mxCell>
        <mxCell id="uu0bmerfT81FikOkdRAW-24" value="" style="shape=parallelogram;perimeter=parallelogramPerimeter;whiteSpace=wrap;html=1;fixedSize=1;rotation=90;size=24;flipH=1;" vertex="1" parent="1">
          <mxGeometry x="317.25" y="338" width="50" height="132.5" as="geometry" />
        </mxCell>
        <mxCell id="uu0bmerfT81FikOkdRAW-25" value="CTS" style="text;html=1;align=center;verticalAlign=middle;whiteSpace=wrap;rounded=0;" vertex="1" parent="1">
          <mxGeometry x="314.25" y="390.25" width="60" height="30" as="geometry" />
        </mxCell>
        <mxCell id="uu0bmerfT81FikOkdRAW-26" value="CTS" style="text;html=1;align=center;verticalAlign=middle;whiteSpace=wrap;rounded=0;" vertex="1" parent="1">
          <mxGeometry x="445" y="390.25" width="60" height="30" as="geometry" />
        </mxCell>
        <mxCell id="uu0bmerfT81FikOkdRAW-27" value="" style="shape=parallelogram;perimeter=parallelogramPerimeter;whiteSpace=wrap;html=1;fixedSize=1;rotation=90;size=24;" vertex="1" parent="1">
          <mxGeometry x="300.87" y="416.63" width="82.75" height="132.5" as="geometry" />
        </mxCell>
        <mxCell id="uu0bmerfT81FikOkdRAW-28" value="DATA" style="text;html=1;align=center;verticalAlign=middle;whiteSpace=wrap;rounded=0;" vertex="1" parent="1">
          <mxGeometry x="314.25" y="467.88" width="60" height="30" as="geometry" />
        </mxCell>
        <mxCell id="uu0bmerfT81FikOkdRAW-29" value="" style="endArrow=none;dashed=1;html=1;strokeWidth=2;rounded=0;" edge="1" parent="1">
          <mxGeometry width="50" height="50" relative="1" as="geometry">
            <mxPoint x="280" y="432" as="sourcePoint" />
            <mxPoint x="540" y="432" as="targetPoint" />
          </mxGeometry>
        </mxCell>
        <mxCell id="uu0bmerfT81FikOkdRAW-30" value="Channel busy" style="text;html=1;align=center;verticalAlign=middle;whiteSpace=wrap;rounded=0;" vertex="1" parent="1">
          <mxGeometry x="440" y="480" width="60" height="30" as="geometry" />
        </mxCell>
        <mxCell id="uu0bmerfT81FikOkdRAW-31" value="Delay" style="text;html=1;align=center;verticalAlign=middle;whiteSpace=wrap;rounded=0;fontSize=10;" vertex="1" parent="1">
          <mxGeometry x="246.37" y="300" width="30" height="10" as="geometry" />
        </mxCell>
        <mxCell id="uu0bmerfT81FikOkdRAW-32" value="Delay" style="text;html=1;align=center;verticalAlign=middle;whiteSpace=wrap;rounded=0;fontSize=10;" vertex="1" parent="1">
          <mxGeometry x="410" y="367" width="30" height="10" as="geometry" />
        </mxCell>
        <mxCell id="uu0bmerfT81FikOkdRAW-33" value="Delay" style="text;html=1;align=center;verticalAlign=middle;whiteSpace=wrap;rounded=0;fontSize=10;" vertex="1" parent="1">
          <mxGeometry x="246.37" y="430" width="30" height="10" as="geometry" />
        </mxCell>
      </root>
    </mxGraphModel>
  </diagram>
</mxfile>
